<?xml version="1.0" encoding="utf-8"?>
<!-- Generator: Adobe Illustrator 23.1.0, SVG Export Plug-In . SVG Version: 6.00 Build 0)  -->
<svg version="1.1" id="Layer_1" xmlns="http://www.w3.org/2000/svg" xmlns:xlink="http://www.w3.org/1999/xlink" x="0px" y="0px"
	 viewBox="0 0 252.3 252.3" style="enable-background:new 0 0 252.3 252.3;" xml:space="preserve">
<style type="text/css">
	.st0{fill:#FFFFFF;}
</style>
<path class="st0" d="M242.3,76.8c-2.7-6.3-5.9-12.4-9.5-18.1C210.3,23.4,170.9,0,126.2,0C81.4,0,42,23.4,19.6,58.7
	c-3.7,5.8-6.8,11.8-9.5,18.1C3.6,92,0,108.7,0,126.1c0,15.3,2.7,30,7.7,43.5c2.7,7.2,5.9,14.1,9.8,20.5
	c22,37.1,62.4,62.1,108.6,62.1c46.2,0,86.6-24.9,108.6-62.1c3.8-6.5,7.1-13.4,9.8-20.5c5-13.6,7.7-28.3,7.7-43.5
	C252.3,108.7,248.7,92,242.3,76.8z M126.2,15.1c43.5,0,81.3,25.2,99.5,61.7c-6.4,12.9-15.3,24.4-26,33.9
	c-20.7-14.9-46.1-23.6-73.4-23.6c-27.4,0-52.7,8.8-73.4,23.6c-10.7-9.5-19.6-21-26-33.9C44.9,40.3,82.6,15.1,126.2,15.1z
	 M186.9,120.4c-17.5,11.5-38.4,18.2-60.8,18.2c-22.4,0-43.3-6.7-60.8-18.2c17.5-11.5,38.4-18.2,60.8-18.2
	C148.6,102.2,169.5,108.9,186.9,120.4z M15.1,126.1c0-10.8,1.6-21.3,4.5-31.2c6,9.4,13.1,17.9,21.3,25.4c-9.1,8.4-17,18.1-23.3,28.8
	C16,141.7,15.1,134,15.1,126.1z M126.2,237.2c-45.8,0-85.2-27.8-102.1-67.5c6.5-15.3,16.4-28.8,28.7-39.7
	c20.7,14.9,46.1,23.6,73.4,23.6c27.4,0,52.7-8.8,73.4-23.6c12.3,10.8,22.2,24.4,28.7,39.7C211.3,209.3,171.9,237.2,126.2,237.2z
	 M211.4,120.4c8.1-7.5,15.3-16,21.3-25.4c2.9,9.9,4.5,20.4,4.5,31.2c0,7.9-0.8,15.6-2.4,23C228.4,138.5,220.5,128.8,211.4,120.4z"/>
</svg>
